<?xml version="1.0" encoding="utf-8"?>
<!-- Generator: Adobe Illustrator 27.3.1, SVG Export Plug-In . SVG Version: 6.00 Build 0)  -->
<svg version="1.1" id="Capa_3" xmlns="http://www.w3.org/2000/svg" xmlns:xlink="http://www.w3.org/1999/xlink" x="0px" y="0px"
	 viewBox="0 0 546 631" style="enable-background:new 0 0 546 631;" xml:space="preserve">
<style type="text/css">
	.st0{fill:#FFDF35;stroke:#000000;stroke-width:10;stroke-miterlimit:10;}
</style>
<g>
	<path class="st0" d="M517.41,246.58c-32.32,45.07-63.37,42.64-63.37,42.64s-50.63-4.84-56.54-36.37
		c-5.91-31.54-6.31-29.9,29.94-81.71c0,0,23.16-23.67,46.56-29.7c23.4-6.03,35.45-0.86,48.63,8.57
		C535.82,159.45,549.73,201.51,517.41,246.58z"/>
	<path class="st0" d="M301,110c0,0,9.41-77.25,50.21-92.13C392,3,418,73,418,73s8,106-59.09,104.91C297.99,176.92,301,110,301,110z"
		/>
	<path class="st0" d="M19.88,237.5c0,0-19.51-64.59-4.85-79.36s34.47-40.6,92.57,0.94s31.44,109.2,31.44,109.2
		s-24.1,43.47-78.78,13.89C34.77,268.38,19.88,237.5,19.88,237.5z"/>
	<path class="st0" d="M148,109c0,0-14-61,24-86s80.19,34,80.6,43c0.4,9,25.4,83-15.6,104C173.26,202.65,148,109,148,109z"/>
	<path class="st0" d="M434.61,376.52c0,0,10.65-13.74,7.29-33.42c-1.87-10.94-17.44-25.86-19.75-26.87c0,0-36.06-22.13-42.7-24.67
		c-6.64-2.54-33.44-31.49-33.44-31.49l-17.23-21.67c0,0-24.04-24.42-68.81-11.16c-44.77,13.26-44.2,37.87-56,52.37
		c-4.82,5.92-19.41,11.45-27.43,17.37c-8.02,5.93-24.34,13.92-24.34,13.92s-29.58,4.58-34.7,29.91
		c-5.11,25.33,11.58,35.72,11.58,35.72s-15.72,12.97-32.36,38.16C80.08,439.86,81,489.46,81,489.46s-0.92,67.16,59.17,103.02
		s150.7,30.53,150.7,30.53s0,0,55.14-6.57c55.13-6.58,73.37-25.48,73.37-25.48c0.16,0.69,25.78-8.52,52.7-69.44
		c25.59-57.91-12.02-122.86-12.02-122.86L434.61,376.52z M291.77,528.78c-28.64,2.65-63.77-23.13-63.77-42.67s0-19.54,0-19.54
		s1.94-28.56,29.17-43.28s48.91,0,48.91,0s14.38,2.07,28.24,34.88S320.41,526.14,291.77,528.78z"/>
</g>
</svg>
